<svg width="41" height="38" viewBox="0 0 41 38" fill="none" xmlns="http://www.w3.org/2000/svg">
<path d="M3.29588 1.33449C3.29588 1.33449 -0.344698 4.59055 1.73301 5.96988C2.57547 6.52876 4.42743 5.58994 4.94502 5.03197C5.72508 4.19042 8.38921 1.6823 12.4923 4.71994C13.5697 5.51836 14.9105 7.07205 17.1442 5.99282C18.5355 5.32013 20.4847 2.70189 17.3828 0.917847M12.696 9.55447C12.696 9.55447 14.8251 8.91207 16.9799 10.987C16.9799 10.987 16.9855 13.7521 12.8181 13.7677M21.887 4.02432C23.4826 2.39473 24.8412 2.09603 27.9177 2.41785M20.2066 22.9027C17.1552 23.2899 14.804 23.2734 13.1861 22.1566C11.4654 20.7093 10.4807 18.8803 9.71255 16.9375C8.22035 17.9626 3.72262 18.7537 2.56813 18.1883C0.179317 17.0173 1.08694 14.556 1.08694 14.556L4.86977 8.84967M27.2554 19.2344C27.2554 19.2344 24.717 23.7477 25.442 28.8658L24.0966 35.0998C24.0097 35.5026 23.7875 35.8635 23.4669 36.1223C23.1463 36.3812 22.7466 36.5223 22.3346 36.5223H22.2281C21.0424 36.5223 20.1669 35.3953 20.4872 34.2537C21.0681 32.1833 21.649 28.9676 20.9433 25.7703C19.5456 19.4326 20.5661 17.8807 20.5661 17.8807M31.1979 22.9921C31.1979 22.9921 29.959 32.4721 29.9021 34.67C29.8846 35.3519 28.9908 35.9191 28.3089 35.9191H27.2554" stroke="url(#paint0_radial_2872_14227)" stroke-width="1.83543" stroke-linecap="round" stroke-linejoin="round"/>
<path d="M33.2257 3.20635C33.2257 2.86462 33.09 2.53688 32.8484 2.29524C32.6067 2.0536 32.279 1.91785 31.9372 1.91785C31.5955 1.91785 31.2678 2.0536 31.0261 2.29524C30.7845 2.53688 30.6487 2.86462 30.6487 3.20635V9.64886H24.2062C23.8645 9.64886 23.5368 9.78462 23.2951 10.0263C23.0535 10.2679 22.9177 10.5956 22.9177 10.9374C22.9177 11.2791 23.0535 11.6068 23.2951 11.8485C23.5368 12.0901 23.8645 12.2259 24.2062 12.2259H30.6487V18.6684C30.6487 19.0101 30.7845 19.3379 31.0261 19.5795C31.2678 19.8211 31.5955 19.9569 31.9372 19.9569C32.279 19.9569 32.6067 19.8211 32.8484 19.5795C33.09 19.3379 33.2257 19.0101 33.2257 18.6684V12.2259H39.6683C40.01 12.2259 40.3377 12.0901 40.5794 11.8485C40.821 11.6068 40.9568 11.2791 40.9568 10.9374C40.9568 10.5956 40.821 10.2679 40.5794 10.0263C40.3377 9.78462 40.01 9.64886 39.6683 9.64886H33.2257V3.20635Z" fill="url(#paint1_radial_2872_14227)"/>
<defs>
<radialGradient id="paint0_radial_2872_14227" cx="0" cy="0" r="1" gradientUnits="userSpaceOnUse" gradientTransform="translate(39.6813 23.7654) scale(12.5478 52.2596)">
<stop stop-color="#90A955"/>
<stop offset="1" stop-color="#06D001"/>
</radialGradient>
<radialGradient id="paint1_radial_2872_14227" cx="0" cy="0" r="1" gradientUnits="userSpaceOnUse" gradientTransform="translate(31.8932 10.9374) scale(9.06352)">
<stop stop-color="#90A955"/>
<stop offset="1" stop-color="#06D001"/>
</radialGradient>
</defs>
</svg>
