<svg width="351" height="351" viewBox="0 0 351 351" fill="none" xmlns="http://www.w3.org/2000/svg">
<path d="M175.5 0C272.426 0 351 78.574 351 175.5C351 272.426 272.426 351 175.5 351C78.574 351 0 272.426 0 175.5C0 78.574 78.574 0 175.5 0ZM175.5 10.5479C84.3993 10.5479 10.5479 84.3993 10.5479 175.5C10.5479 266.601 84.3993 340.452 175.5 340.452C266.601 340.452 340.452 266.601 340.452 175.5C340.452 84.3993 266.601 10.5479 175.5 10.5479ZM175.691 29.0586C252.873 29.0587 315.441 91.6271 315.441 168.809C315.441 245.99 252.873 308.558 175.691 308.559C98.5096 308.559 35.9414 245.99 35.9414 168.809C35.9416 91.627 98.5097 29.0586 175.691 29.0586ZM175.691 60.7891C116.034 60.7891 67.6711 109.151 67.6709 168.809C67.6709 228.467 116.033 276.829 175.691 276.829C235.349 276.829 283.712 228.466 283.712 168.809C283.712 109.151 235.349 60.7892 175.691 60.7891Z" fill="url(#paint0_linear_2846_14175)"/>
<defs>
<linearGradient id="paint0_linear_2846_14175" x1="73" y1="15.5" x2="126.945" y2="118.393" gradientUnits="userSpaceOnUse">
<stop stop-color="#90A955"/>
<stop offset="1" stop-color="#038000"/>
</linearGradient>
</defs>
</svg>
