<svg width="18" height="18" viewBox="0 0 18 18" fill="none" xmlns="http://www.w3.org/2000/svg">
<path d="M0.888916 16.8889L4.00003 13.7778M4.44447 7.11111C4.44447 7.92822 4.60541 8.73733 4.91811 9.49225C5.23081 10.2472 5.68913 10.9331 6.26692 11.5109C6.84471 12.0887 7.53064 12.547 8.28555 12.8597C9.04047 13.1724 9.84958 13.3333 10.6667 13.3333C11.4838 13.3333 12.2929 13.1724 13.0478 12.8597C13.8027 12.547 14.4887 12.0887 15.0665 11.5109C15.6443 10.9331 16.1026 10.2472 16.4153 9.49225C16.728 8.73733 16.8889 7.92822 16.8889 7.11111C16.8889 5.46087 16.2334 3.87823 15.0665 2.71133C13.8996 1.54444 12.3169 0.888885 10.6667 0.888885C9.01646 0.888885 7.43381 1.54444 6.26692 2.71133C5.10003 3.87823 4.44447 5.46087 4.44447 7.11111Z" stroke="#AAAAAA" stroke-opacity="0.7176" stroke-width="1.77778" stroke-linecap="round"/>
</svg>
