<svg width="34" height="34" viewBox="0 0 34 34" fill="none" xmlns="http://www.w3.org/2000/svg">
<g clip-path="url(#clip0_2880_6675)">
<rect width="33.49" height="33.49" rx="16.745" fill="#05DA00"/>
<path fill-rule="evenodd" clip-rule="evenodd" d="M13.962 24.4691C11.019 22.2141 7 18.4891 7 14.9671C7 9.0831 12.5 6.8861 17 11.4301C21.5 6.8861 27 9.0831 27 14.9671C27 18.4891 22.98 22.2141 20.038 24.4691C18.706 25.4891 18.04 26.0001 17 26.0001C15.96 26.0001 15.294 25.4901 13.962 24.4691ZM21.5 12.2501C21.6989 12.2501 21.8897 12.3291 22.0303 12.4698C22.171 12.6104 22.25 12.8012 22.25 13.0001V14.2501H23.5C23.6989 14.2501 23.8897 14.3291 24.0303 14.4698C24.171 14.6104 24.25 14.8012 24.25 15.0001C24.25 15.199 24.171 15.3898 24.0303 15.5304C23.8897 15.6711 23.6989 15.7501 23.5 15.7501H22.25V17.0001C22.25 17.199 22.171 17.3898 22.0303 17.5304C21.8897 17.6711 21.6989 17.7501 21.5 17.7501C21.3011 17.7501 21.1103 17.6711 20.9697 17.5304C20.829 17.3898 20.75 17.199 20.75 17.0001V15.7501H19.5C19.3011 15.7501 19.1103 15.6711 18.9697 15.5304C18.829 15.3898 18.75 15.199 18.75 15.0001C18.75 14.8012 18.829 14.6104 18.9697 14.4698C19.1103 14.3291 19.3011 14.2501 19.5 14.2501H20.75V13.0001C20.75 12.8012 20.829 12.6104 20.9697 12.4698C21.1103 12.3291 21.3011 12.2501 21.5 12.2501Z" fill="#27333A"/>
<rect width="33.49" height="33.49" rx="16.745" fill="#F2C200"/>
<path d="M16.3613 17.9308C16.8674 17.9308 17.3008 17.7533 17.6615 17.3984C18.0222 17.0435 18.2022 16.6164 18.2016 16.1169C18.201 15.6175 18.021 15.1907 17.6615 14.8364C17.302 14.4821 16.8686 14.3043 16.3613 14.3031C15.854 14.3019 15.4209 14.4797 15.062 14.8364C14.7032 15.1931 14.5228 15.62 14.521 16.1169C14.5191 16.6139 14.6995 17.0411 15.062 17.3984C15.4246 17.7558 15.8577 17.9332 16.3613 17.9308ZM16.3613 27C13.8922 24.9292 12.0482 23.0059 10.8293 21.2302C9.61037 19.4544 9.00061 17.8105 9 16.2983C9 14.031 9.74012 12.2247 11.2204 10.8795C12.7006 9.53421 14.4142 8.86158 16.3613 8.86158C16.622 8.86158 16.8904 8.87669 17.1664 8.90692C17.4425 8.93715 17.7109 8.96738 17.9716 8.99761L20.18 11.1742L18.2476 13.0788L20.8471 15.6408L22.7794 13.7363L23.4926 14.4618C23.5539 14.7641 23.6076 15.0664 23.6536 15.3687C23.6996 15.671 23.7226 15.9809 23.7226 16.2983C23.7226 17.8099 23.1131 19.4538 21.8942 21.2302C20.6753 23.0065 18.831 24.9298 16.3613 27ZM20.8471 14.3484L19.5589 13.0788L21.4912 11.1742L19.5589 9.26969L20.8471 8L22.7794 9.90453L24.7118 8L26 9.26969L24.0677 11.1742L26 13.0788L24.7118 14.3484L22.7794 12.4439L20.8471 14.3484Z" fill="#27333A"/>
</g>
<defs>
<clipPath id="clip0_2880_6675">
<rect width="33.49" height="33.49" rx="16.745" fill="white"/>
</clipPath>
</defs>
</svg>
