<svg width="34" height="34" viewBox="0 0 34 34" fill="none" xmlns="http://www.w3.org/2000/svg">
<rect width="33.49" height="33.49" rx="16.745" fill="#05DA00"/>
<path fill-rule="evenodd" clip-rule="evenodd" d="M13.962 24.4691C11.019 22.2141 7 18.4891 7 14.9671C7 9.0831 12.5 6.8861 17 11.4301C21.5 6.8861 27 9.0831 27 14.9671C27 18.4891 22.98 22.2141 20.038 24.4691C18.706 25.4891 18.04 26.0001 17 26.0001C15.96 26.0001 15.294 25.4901 13.962 24.4691ZM21.5 12.2501C21.6989 12.2501 21.8897 12.3291 22.0303 12.4698C22.171 12.6104 22.25 12.8012 22.25 13.0001V14.2501H23.5C23.6989 14.2501 23.8897 14.3291 24.0303 14.4698C24.171 14.6104 24.25 14.8012 24.25 15.0001C24.25 15.199 24.171 15.3898 24.0303 15.5304C23.8897 15.6711 23.6989 15.7501 23.5 15.7501H22.25V17.0001C22.25 17.199 22.171 17.3898 22.0303 17.5304C21.8897 17.6711 21.6989 17.7501 21.5 17.7501C21.3011 17.7501 21.1103 17.6711 20.9697 17.5304C20.829 17.3898 20.75 17.199 20.75 17.0001V15.7501H19.5C19.3011 15.7501 19.1103 15.6711 18.9697 15.5304C18.829 15.3898 18.75 15.199 18.75 15.0001C18.75 14.8012 18.829 14.6104 18.9697 14.4698C19.1103 14.3291 19.3011 14.2501 19.5 14.2501H20.75V13.0001C20.75 12.8012 20.829 12.6104 20.9697 12.4698C21.1103 12.3291 21.3011 12.2501 21.5 12.2501Z" fill="#27333A"/>
</svg>
