<svg width="34" height="34" viewBox="0 0 34 34" fill="none" xmlns="http://www.w3.org/2000/svg">
<g clip-path="url(#clip0_2880_7734)">
<rect width="33.49" height="33.49" rx="16.745" fill="#05DA00"/>
<path fill-rule="evenodd" clip-rule="evenodd" d="M13.962 24.4691C11.019 22.2141 7 18.4891 7 14.9671C7 9.0831 12.5 6.8861 17 11.4301C21.5 6.8861 27 9.0831 27 14.9671C27 18.4891 22.98 22.2141 20.038 24.4691C18.706 25.4891 18.04 26.0001 17 26.0001C15.96 26.0001 15.294 25.4901 13.962 24.4691ZM21.5 12.2501C21.6989 12.2501 21.8897 12.3291 22.0303 12.4698C22.171 12.6104 22.25 12.8012 22.25 13.0001V14.2501H23.5C23.6989 14.2501 23.8897 14.3291 24.0303 14.4698C24.171 14.6104 24.25 14.8012 24.25 15.0001C24.25 15.199 24.171 15.3898 24.0303 15.5304C23.8897 15.6711 23.6989 15.7501 23.5 15.7501H22.25V17.0001C22.25 17.199 22.171 17.3898 22.0303 17.5304C21.8897 17.6711 21.6989 17.7501 21.5 17.7501C21.3011 17.7501 21.1103 17.6711 20.9697 17.5304C20.829 17.3898 20.75 17.199 20.75 17.0001V15.7501H19.5C19.3011 15.7501 19.1103 15.6711 18.9697 15.5304C18.829 15.3898 18.75 15.199 18.75 15.0001C18.75 14.8012 18.829 14.6104 18.9697 14.4698C19.1103 14.3291 19.3011 14.2501 19.5 14.2501H20.75V13.0001C20.75 12.8012 20.829 12.6104 20.9697 12.4698C21.1103 12.3291 21.3011 12.2501 21.5 12.2501Z" fill="#27333A"/>
<rect width="33.49" height="33.49" rx="16.745" fill="white"/>
<path d="M18.2501 22.9375C18.2501 23.1848 18.1768 23.4264 18.0395 23.632C17.9021 23.8376 17.7069 23.9978 17.4785 24.0924C17.2501 24.187 16.9988 24.2117 16.7563 24.1635C16.5138 24.1153 16.2911 23.9962 16.1163 23.8214C15.9414 23.6466 15.8224 23.4239 15.7742 23.1814C15.7259 22.9389 15.7507 22.6876 15.8453 22.4592C15.9399 22.2308 16.1001 22.0355 16.3057 21.8982C16.5112 21.7608 16.7529 21.6875 17.0001 21.6875C17.3317 21.6875 17.6496 21.8192 17.884 22.0536C18.1184 22.2881 18.2501 22.606 18.2501 22.9375ZM23.9533 13.25L25.1658 12.0383C25.3419 11.8622 25.4408 11.6233 25.4408 11.3742C25.4408 11.1252 25.3419 10.8863 25.1658 10.7102C24.9896 10.5341 24.7508 10.4351 24.5017 10.4351C24.2526 10.4351 24.0138 10.5341 23.8376 10.7102L22.6251 11.9219L21.4134 10.7117C21.2373 10.5356 20.9984 10.4367 20.7494 10.4367C20.5003 10.4367 20.2614 10.5356 20.0853 10.7117C19.9092 10.8879 19.8102 11.1267 19.8102 11.3758C19.8102 11.6249 19.9092 11.8638 20.0853 12.0399L21.297 13.25L20.0869 14.4617C19.9107 14.6379 19.8118 14.8767 19.8118 15.1258C19.8118 15.3749 19.9107 15.6138 20.0869 15.7899C20.263 15.966 20.5019 16.0649 20.7509 16.0649C21 16.0649 21.2389 15.966 21.415 15.7899L22.6251 14.5782L23.8369 15.7907C23.9241 15.8779 24.0276 15.947 24.1415 15.9942C24.2555 16.0414 24.3776 16.0657 24.5009 16.0657C24.6243 16.0657 24.7464 16.0414 24.8603 15.9942C24.9743 15.947 25.0778 15.8779 25.165 15.7907C25.2522 15.7034 25.3214 15.5999 25.3686 15.486C25.4158 15.372 25.4401 15.2499 25.4401 15.1266C25.4401 15.0033 25.4158 14.8811 25.3686 14.7672C25.3214 14.6533 25.2522 14.5497 25.165 14.4625L23.9533 13.25ZM20.6798 19.1328C19.6114 18.3555 18.3241 17.9368 17.0029 17.9368C15.6816 17.9368 14.3943 18.3555 13.3259 19.1328C13.1249 19.2792 12.9903 19.4995 12.9517 19.7451C12.9131 19.9907 12.9737 20.2416 13.1201 20.4426C13.2665 20.6436 13.4867 20.7782 13.7323 20.8168C13.9779 20.8554 14.2288 20.7949 14.4298 20.6485C15.1776 20.1047 16.0783 19.8118 17.0029 19.8118C17.9274 19.8118 18.8282 20.1047 19.5759 20.6485C19.7769 20.7949 20.0278 20.8554 20.2734 20.8168C20.5191 20.7782 20.7393 20.6436 20.8857 20.4426C21.0321 20.2416 21.0926 19.9907 21.054 19.7451C21.0154 19.4995 20.8808 19.2792 20.6798 19.1328ZM17.9376 11.375C17.9376 11.1264 17.8389 10.8879 17.6631 10.7121C17.4872 10.5363 17.2488 10.4375 17.0001 10.4375C13.8209 10.4392 10.7401 11.5408 8.28061 13.5555C8.18545 13.6336 8.10662 13.7297 8.0486 13.8383C7.99059 13.9469 7.95453 14.0659 7.94248 14.1884C7.93044 14.3109 7.94265 14.4346 7.97841 14.5524C8.01418 14.6703 8.0728 14.7799 8.15092 14.875C8.22905 14.9702 8.32515 15.049 8.43375 15.107C8.54234 15.1651 8.6613 15.2011 8.78383 15.2132C8.90636 15.2252 9.03006 15.213 9.14787 15.1772C9.26568 15.1415 9.3753 15.0828 9.47046 15.0047C11.5944 13.2652 14.2548 12.314 17.0001 12.3125C17.2488 12.3125 17.4872 12.2138 17.6631 12.0379C17.8389 11.8621 17.9376 11.6237 17.9376 11.375ZM17.9376 15.125C17.9376 14.8764 17.8389 14.6379 17.6631 14.4621C17.4872 14.2863 17.2488 14.1875 17.0001 14.1875C14.7455 14.1792 12.5557 14.941 10.7931 16.3469C10.6031 16.5029 10.482 16.7272 10.4558 16.9716C10.4296 17.2161 10.5004 17.461 10.653 17.6537C10.8057 17.8464 11.0279 17.9714 11.2718 18.0018C11.5157 18.0323 11.7619 17.9657 11.9572 17.8164C13.3893 16.6743 15.1684 16.0556 17.0001 16.0625C17.2488 16.0625 17.4872 15.9638 17.6631 15.7879C17.8389 15.6121 17.9376 15.3737 17.9376 15.125Z" fill="#27333A"/>
</g>
<defs>
<clipPath id="clip0_2880_7734">
<rect width="33.49" height="33.49" rx="16.745" fill="white"/>
</clipPath>
</defs>
</svg>
